<?xml version="1.0" encoding="utf-8"?>
<!-- Generator: Adobe Illustrator 23.0.3, SVG Export Plug-In . SVG Version: 6.00 Build 0)  -->
<svg version="1.1" id="Layer_1" xmlns="http://www.w3.org/2000/svg" xmlns:xlink="http://www.w3.org/1999/xlink" x="0px" y="0px"
	 viewBox="0 0 206 179" style="enable-background:new 0 0 206 179;" xml:space="preserve">
<style type="text/css">
	.st0{fill-rule:evenodd;clip-rule:evenodd;fill:#3B8B9E;}
	.st1{opacity:0.63;}
	.st2{fill-rule:evenodd;clip-rule:evenodd;fill:#4D99AD;}
	.st3{opacity:0.64;}
	.st4{fill-rule:evenodd;clip-rule:evenodd;fill:#B6D1D8;}
</style>
<title>training logo</title>
<path class="st0" d="M205.3,15c0,0-80.9,15-102.6,37v127c0,0,56.4-63,103.4-63L205.3,15z"/>
<path class="st0" d="M0.7,15L0,116c47,0,103.4,63,103.4,63V52C81.7,30,0.7,15,0.7,15z"/>
<g class="st1">
	<path class="st2" d="M191,0c0,0-69.2,30-87.4,52v127c0,0,47.4-63,86.9-63L191,0z"/>
	<path class="st2" d="M17,0l0.2,116c39.5,0,86.9,63,86.9,63V52C85.8,30,17,0,17,0z"/>
</g>
<g class="st3">
	<path class="st4" d="M161,0c0,0-45.3,30-57.6,52v127c0,0,31.9-63,58.4-63L161,0z"/>
	<path class="st4" d="M46,0l-1.4,116c26.6,0,58.4,63,58.4,63V52C90.7,30,46,0,46,0z"/>
</g>
</svg>
